<?xml version="1.0" encoding="utf-8"?>
<!-- Generator: Adobe Illustrator 16.0.0, SVG Export Plug-In . SVG Version: 6.00 Build 0)  -->
<!DOCTYPE svg PUBLIC "-//W3C//DTD SVG 1.1//EN" "http://www.w3.org/Graphics/SVG/1.1/DTD/svg11.dtd">
<svg version="1.1" id="Layer_1" xmlns="http://www.w3.org/2000/svg" xmlns:xlink="http://www.w3.org/1999/xlink" x="0px" y="0px"
	 width="50px" height="50px" viewBox="0 0 50 50" enable-background="new 0 0 50 50" xml:space="preserve">
<g>
	<path fill="#FFFFFF" d="M49.997,40.623c0,5.175-4.198,9.374-9.373,9.374H9.377c-5.175,0-9.373-4.199-9.373-9.374V9.377
		c0-5.175,4.198-9.374,9.373-9.374h31.246c5.175,0,9.373,4.199,9.373,9.374V40.623z M37.726,16.798
		c1.433-0.846,2.507-2.213,3.027-3.808c-1.335,0.781-2.799,1.367-4.361,1.66c-1.237-1.334-3.027-2.148-4.979-2.148
		c-3.775,0-6.835,3.06-6.835,6.835c0,0.521,0.032,1.074,0.162,1.562c-5.695-0.293-10.74-2.994-14.125-7.16
		c-0.586,1.009-0.944,2.213-0.944,3.45c0,2.376,1.106,4.459,2.962,5.696c-1.139-0.032-2.213-0.358-3.255-0.846c0,0,0,0.033,0,0.065
		c0,3.32,2.507,6.086,5.631,6.705c-0.586,0.163-1.041,0.26-1.66,0.26c-0.423,0-0.846-0.065-1.27-0.13
		c0.879,2.702,3.386,4.687,6.38,4.752c-2.344,1.823-5.272,2.929-8.495,2.929c-0.553,0-1.106-0.032-1.627-0.098
		c3.026,1.92,6.606,3.06,10.479,3.06c12.563,0,19.464-10.415,19.464-19.463c0-0.293,0-0.586-0.032-0.879
		c1.334-0.944,2.506-2.148,3.417-3.548C40.428,16.245,39.125,16.603,37.726,16.798z"/>
</g>
</svg>
