<?xml version="1.0" encoding="utf-8"?>
<!-- Generator: Adobe Illustrator 16.0.0, SVG Export Plug-In . SVG Version: 6.00 Build 0)  -->
<!DOCTYPE svg PUBLIC "-//W3C//DTD SVG 1.1//EN" "http://www.w3.org/Graphics/SVG/1.1/DTD/svg11.dtd">
<svg version="1.1" id="Layer_1" xmlns="http://www.w3.org/2000/svg" xmlns:xlink="http://www.w3.org/1999/xlink" x="0px" y="0px"
	 width="50px" height="50px" viewBox="0 0 50 50" enable-background="new 0 0 50 50" xml:space="preserve">
<g>
	<path fill="#FFFFFF" d="M49.997,40.623c0,5.175-4.198,9.374-9.373,9.374H9.377c-5.175,0-9.373-4.199-9.373-9.374V9.377
		c0-5.175,4.198-9.374,9.373-9.374h31.246c5.175,0,9.373,4.199,9.373,9.374V40.623z M11.526,8.401c-2.571,0-4.264,1.692-4.264,3.906
		c0,2.148,1.627,3.906,4.166,3.906h0.032c2.637,0,4.264-1.758,4.264-3.906C15.692,10.093,14.097,8.401,11.526,8.401z M15.236,41.859
		V19.271H7.718v22.588H15.236z M42.283,41.859V28.906c0-6.933-3.71-10.155-8.657-10.155c-4.036,0-5.826,2.246-6.803,3.808h0.065
		v-3.288H19.37c0,0,0.098,2.116,0,22.588h7.519V29.231c0-0.651,0.032-1.334,0.228-1.822c0.554-1.334,1.79-2.734,3.873-2.734
		c2.702,0,3.775,2.051,3.775,5.11v12.075H42.283z"/>
</g>
</svg>
