<?xml version="1.0" encoding="utf-8"?>
<!-- Generator: Adobe Illustrator 16.0.0, SVG Export Plug-In . SVG Version: 6.00 Build 0)  -->
<!DOCTYPE svg PUBLIC "-//W3C//DTD SVG 1.1//EN" "http://www.w3.org/Graphics/SVG/1.1/DTD/svg11.dtd">
<svg version="1.1" id="Layer_1" xmlns="http://www.w3.org/2000/svg" xmlns:xlink="http://www.w3.org/1999/xlink" x="0px" y="0px"
	 width="50px" height="50px" viewBox="0 0 50 50" enable-background="new 0 0 50 50" xml:space="preserve">
<g>
	<path fill="#FFFFFF" d="M49.997,40.623c0,5.175-4.198,9.374-9.373,9.374H9.377c-5.175,0-9.373-4.199-9.373-9.374V9.377
		c0-5.175,4.198-9.374,9.373-9.374h31.246c5.175,0,9.373,4.199,9.373,9.374V40.623z M29.655,23.21H17.873v4.296h7.063
		c-0.26,1.822-2.115,5.37-7.063,5.37c-4.296,0-7.779-3.515-7.779-7.876s3.483-7.876,7.779-7.876c2.408,0,4.036,1.009,4.979,1.92
		l3.385-3.287c-2.181-2.018-5.012-3.255-8.364-3.255C10.94,12.502,5.375,18.1,5.375,25s5.565,12.498,12.498,12.498
		c7.193,0,11.978-5.077,11.978-12.205C29.85,24.479,29.752,23.828,29.655,23.21z M44.626,26.79v-3.58h-3.548v-3.58h-3.58v3.58h-3.58
		v3.58h3.58v3.58h3.58v-3.58H44.626z"/>
</g>
</svg>
