<?xml version="1.0" encoding="utf-8"?>
<!-- Generator: Adobe Illustrator 16.0.0, SVG Export Plug-In . SVG Version: 6.00 Build 0)  -->
<!DOCTYPE svg PUBLIC "-//W3C//DTD SVG 1.1//EN" "http://www.w3.org/Graphics/SVG/1.1/DTD/svg11.dtd">
<svg version="1.1" id="Layer_1" xmlns="http://www.w3.org/2000/svg" xmlns:xlink="http://www.w3.org/1999/xlink" x="0px" y="0px"
	 width="50px" height="50px" viewBox="0 0 50 50" enable-background="new 0 0 50 50" xml:space="preserve">
<g>
	<path fill="#FFFFFF" d="M50,9.375v31.25C50,45.8,45.8,50,40.624,50h-6.117V30.631h6.478l0.978-7.55h-7.455v-4.819
		c0-2.181,0.583-3.645,3.744-3.645l3.972-0.033V7.845c-0.684-0.098-3.061-0.292-5.794-0.292c-5.762,0-9.733,3.514-9.733,9.961v5.567
		h-6.511v7.55h6.511V50H9.377C4.2,50,0,45.8,0,40.625V9.375C0,4.2,4.2,0,9.377,0h31.246C45.8,0,50,4.2,50,9.375z"/>
</g>
</svg>
